PathFileType	4	(X/Y/Z)	SUBJ82_4_walk_RCNL2025.trc
DataRate	CameraRate	NumFrames	NumMarkers	Units	OrigDataRate	OrigDataStartFrame	OrigNumFrames
100	100	11	25	mm	100	31	242
Frame#	Time	R_Shoulder			L_Shoulder			C7			J_Notch			R_Elbow			L_Elbow			R_Wrist			L_Wrist			R_Asis			L_Asis			Sacral			Thoracic			Sternum			R_Thigh_Lateral			R_Knee_Lateral			R_Shank_Lateral			R_Ankle_Lateral			R_Heel			R_Toe			L_Thigh_Lateral			L_Knee_Lateral			L_Shank_Lateral			L_Ankle_Lateral			L_Heel			L_Toe		
		X1	Y1	Z1	X2	Y2	Z2	X3	Y3	Z3	X4	Y4	Z4	X5	Y5	Z5	X6	Y6	Z6	X7	Y7	Z7	X8	Y8	Z8	X9	Y9	Z9	X10	Y10	Z10	X11	Y11	Z11	X12	Y12	Z12	X13	Y13	Z13	X14	Y14	Z14	X15	Y15	Z15	X16	Y16	Z16	X17	Y17	Z17	X18	Y18	Z18	X19	Y19	Z19	X20	Y20	Z20	X21	Y21	Z21	X22	Y22	Z22	X23	Y23	Z23	X24	Y24	Z24	X25	Y25	Z25
31	0.30000000	-819.857788	1412.935913	-92.029945	-808.069763	1402.195801	-503.640411	-864.224609	1502.301392	-298.168640	-744.391846	1384.594482	-293.380615	-867.244446	1074.489502	-5.269538	-942.868896	1073.476196	-548.091187	-743.065704	843.359863	-23.475954	-912.054291	812.266846	-534.077576	-761.351990	965.988831	-132.412552	-735.795410	992.214905	-399.588684	-926.109863	987.874817	-293.739166	-955.898560	1260.225220	-291.528412	-715.557434	1211.531982	-282.909973	-887.464905	545.811951	-77.426270	-909.256042	467.032135	-121.772331	-1088.362915	332.627136	-80.524994	-1211.843506	202.434662	-179.325806	-1250.877808	218.490097	-230.131470	-1160.572998	70.583046	-202.702301	-696.411011	558.327698	-461.932678	-669.402893	488.898315	-417.352753	-638.236023	260.788025	-449.236359	-631.411682	73.800354	-381.092743	-669.940796	53.996346	-324.809479	-488.239502	51.076683	-353.338135
32	0.31000000	-804.720581	1415.233643	-93.319771	-791.141418	1403.628296	-504.641144	-848.619873	1504.118530	-299.759552	-728.799988	1386.241821	-294.337097	-856.202881	1076.771729	-7.752669	-923.348694	1074.106812	-550.443054	-736.436249	843.237061	-24.547080	-888.787659	813.321075	-536.858917	-745.663879	966.945984	-134.519226	-721.643372	994.422974	-401.552582	-911.511108	989.412964	-293.592926	-940.458618	1262.062744	-292.821381	-700.331421	1213.151123	-283.595642	-860.137817	544.506165	-75.850006	-881.001526	466.220215	-119.938812	-1063.169434	338.405640	-79.533562	-1189.886108	211.877106	-178.769684	-1227.648804	229.585587	-230.335175	-1144.886108	77.056519	-199.585068	-685.907776	559.145203	-463.412964	-660.037292	489.409363	-418.732910	-633.106873	260.501404	-450.065765	-630.344666	73.875290	-380.947418	-669.306213	54.568180	-324.931610	-487.501068	49.598042	-353.287079
33	0.32000000	-789.600159	1417.335205	-94.403641	-774.149414	1405.076416	-505.422394	-833.105408	1505.992676	-301.105011	-713.372803	1387.842407	-295.044189	-845.333008	1078.892334	-10.069755	-903.696167	1074.751587	-552.944641	-729.988281	843.107544	-25.645777	-865.079407	814.489838	-539.660370	-730.272156	968.029419	-136.539307	-707.734802	996.497253	-403.494904	-897.191162	990.942688	-293.519348	-925.220276	1264.073486	-293.997040	-685.260925	1214.673218	-284.112427	-832.936401	543.705322	-74.708824	-852.470276	465.843689	-118.440849	-1036.477417	343.120758	-78.631760	-1166.191772	220.317795	-178.534546	-1203.033813	238.990982	-230.838943	-1125.844971	83.659851	-196.127914	-676.537598	559.796265	-464.675690	-651.900085	489.736542	-419.926941	-629.024841	260.114136	-450.755798	-629.599365	73.926605	-380.670837	-668.883118	54.975731	-324.973633	-487.034851	48.652950	-353.157776
34	0.33000000	-774.573059	1419.245850	-95.259415	-757.213684	1406.596680	-505.977783	-817.686340	1507.967041	-302.186493	-698.142822	1389.475464	-295.511353	-834.562988	1080.849243	-12.218287	-883.884216	1075.415039	-555.551025	-723.668274	842.960236	-26.764544	-840.988403	815.779694	-542.453857	-715.157776	969.337219	-138.430847	-694.017700	998.470337	-405.381287	-883.096497	992.519409	-293.549927	-910.181152	1266.267456	-295.045837	-670.355591	1216.178467	-284.492615	-806.166992	543.611633	-74.075592	-823.852112	466.087708	-117.351402	-1008.550415	346.741486	-77.892159	-1140.872314	227.470993	-178.579697	-1177.170532	246.430405	-231.594223	-1103.438965	89.920036	-192.598923	-668.179077	560.342773	-465.707275	-644.843201	489.960114	-420.922241	-625.827576	259.729919	-451.306213	-629.109009	73.955925	-380.317078	-668.633972	55.257332	-324.954590	-486.775208	48.094006	-352.980804
35	0.34000000	-759.715515	1421.000122	-95.876053	-740.461426	1408.263062	-506.313843	-802.373474	1510.069092	-302.995239	-683.114136	1391.212402	-295.767426	-823.842468	1082.672241	-14.215187	-863.883606	1076.127319	-558.207703	-717.428650	842.812439	-27.895982	-816.567230	817.222534	-545.217804	-700.291138	970.954773	-140.170456	-680.448120	1000.380188	-407.182404	-869.167175	994.212463	-293.692627	-895.330139	1268.640503	-295.973511	-655.624390	1217.745850	-284.777344	-779.990662	544.335754	-73.963623	-795.304565	467.064362	-116.715248	-979.703735	349.397919	-77.389519	-1114.046997	233.087982	-178.834000	-1150.191772	251.736038	-232.490967	-1077.792358	95.419373	-189.299240	-660.628296	560.844666	-466.531616	-638.644958	490.145447	-421.721344	-623.312683	259.423767	-451.733978	-628.802795	73.965599	-379.931580	-668.516907	55.454079	-324.893036	-486.663818	47.795380	-352.788086
36	0.35000000	-745.088562	1422.650635	-96.257263	-724.011353	1410.149292	-506.453827	-787.179016	1512.307129	-303.534821	-668.271606	1393.100464	-295.850555	-813.150757	1084.411865	-16.091862	-843.675598	1076.936279	-560.857849	-711.228363	842.702942	-29.033248	-791.862579	818.868378	-547.932953	-685.638489	972.935242	-141.750977	-666.991394	1002.259460	-408.876801	-855.347412	996.088745	-293.938904	-880.648743	1271.171509	-296.800629	-641.072205	1219.434204	-285.010681	-754.427002	545.879456	-74.334473	-766.957947	468.796173	-116.539368	-950.236694	351.288544	-77.171768	-1085.845703	236.976181	-179.226624	-1122.220825	254.837311	-233.403595	-1049.126343	99.841263	-186.502914	-653.672241	561.353210	-467.196350	-633.075806	490.335754	-422.334351	-621.271912	259.225952	-452.061157	-628.610352	73.958603	-379.541473	-668.487061	55.601971	-324.800446	-486.651276	47.658817	-352.606750
37	0.36000000	-730.727356	1424.253052	-96.422623	-707.958252	1412.313843	-506.436951	-772.111755	1514.671387	-303.822266	-653.593262	1395.152832	-295.799591	-802.492126	1086.124634	-17.885101	-823.262817	1077.895508	-563.446106	-705.032288	842.680634	-30.171077	-766.916992	820.775116	-550.580719	-671.165588	975.288086	-143.178757	-653.621948	1004.130066	-410.452148	-841.591614	998.193909	-294.268219	-866.113220	1273.822266	-297.555420	-626.698059	1221.272705	-285.234344	-729.403320	548.153381	-75.111168	-738.921387	471.222137	-116.793839	-920.393555	352.581146	-77.247765	-1056.403687	239.018875	-179.710480	-1093.364014	255.737854	-234.233398	-1017.714905	102.991341	-184.418274	-647.149231	561.902832	-467.751495	-627.958130	490.553558	-422.777344	-619.521484	259.133118	-452.306915	-628.472107	73.937637	-379.158478	-668.496460	55.724819	-324.679504	-486.697205	47.612850	-352.457947
38	0.37000000	-716.635864	1425.854370	-96.406067	-692.359985	1414.786377	-506.310486	-757.175781	1517.135376	-303.886475	-639.056274	1397.349854	-295.651337	-791.880432	1087.859863	-19.627254	-802.675110	1079.051025	-565.920959	-698.809937	842.791901	-31.307923	-741.770569	822.997986	-553.142609	-656.837463	977.976990	-144.473618	-640.324463	1006.000793	-411.903809	-827.865295	1000.539185	-294.647461	-851.697571	1276.541382	-298.265686	-612.495178	1223.259521	-285.482849	-704.813599	551.017700	-76.191620	-711.289185	474.222717	-117.422073	-890.365173	353.361542	-77.599586	-1025.845703	239.180786	-180.269043	-1063.698486	254.491806	-234.931030	-983.846375	104.797234	-183.166962	-640.974365	562.506714	-468.230011	-623.190063	490.806366	-423.071930	-617.924622	259.128387	-452.487946	-628.347534	73.905319	-378.787964	-668.495972	55.831451	-324.525452	-486.770508	47.607700	-352.353241
39	0.38000000	-702.786743	1427.480713	-96.250992	-677.228149	1417.561035	-506.119019	-742.372559	1519.657471	-303.764130	-624.638184	1399.646240	-295.440948	-781.323303	1089.650513	-21.339241	-781.970215	1080.429443	-568.238464	-692.534973	843.069855	-32.446801	-716.462219	825.578827	-555.599518	-642.616760	980.928833	-145.666824	-627.096924	1007.865906	-413.233704	-814.145081	1003.095764	-295.031158	-837.376404	1279.267578	-298.953674	-598.451477	1225.364624	-285.778931	-680.557861	554.320740	-77.461411	-684.143433	477.651123	-118.356186	-860.306641	353.641022	-78.202812	-994.274170	237.499756	-180.911087	-1033.259155	251.186554	-235.501785	-947.802856	105.294373	-182.773392	-635.125183	563.159729	-468.636749	-618.731873	491.091461	-423.240479	-616.406128	259.192841	-452.619934	-628.214600	73.865578	-378.435730	-668.441101	55.919243	-324.326904	-486.849304	47.609890	-352.294830
40	0.39000000	-689.127808	1429.132324	-96.003418	-662.527771	1420.595703	-505.896576	-727.701477	1522.183472	-303.495148	-610.319336	1401.979980	-295.198975	-770.815979	1091.507324	-23.028681	-761.229858	1082.031860	-570.367310	-686.184570	843.527466	-33.594725	-691.030914	828.537933	-557.931824	-628.464478	984.046082	-146.794144	-613.947998	1009.705444	-414.449829	-800.417603	1005.798706	-295.368347	-823.125854	1281.935425	-299.633026	-584.550110	1227.538574	-286.132629	-656.562317	557.924438	-78.807869	-657.552185	481.359222	-119.530426	-830.342468	353.392761	-79.038376	-961.768250	234.074478	-181.663010	-1002.034119	245.933884	-236.000381	-909.851685	104.601486	-183.167496	-629.603821	563.844299	-468.948730	-614.579346	491.399689	-423.301392	-614.950439	259.310608	-452.716827	-628.067688	73.826752	-378.114349	-668.299438	55.980091	-324.069397	-486.919342	47.600395	-352.280548
41	0.40000000	-675.592285	1430.782837	-95.705673	-648.186401	1423.816528	-505.664948	-713.159546	1524.651611	-303.118500	-596.084595	1404.280762	-294.948486	-760.345093	1093.416626	-24.693943	-740.552368	1083.832275	-572.293640	-679.737701	844.152649	-34.763345	-665.516052	831.870361	-560.123871	-614.344482	987.219177	-147.888199	-600.887451	1011.486206	-415.567108	-786.676331	1008.556946	-295.613556	-808.926208	1284.482788	-300.309174	-570.768250	1229.722778	-286.544952	-632.789551	561.716248	-80.132675	-631.566528	485.211578	-120.887794	-800.555420	352.577911	-80.093437	-928.384155	229.050705	-182.562012	-969.969727	238.867477	-236.517929	-870.246033	102.891701	-184.200729	-624.403809	564.541077	-469.130737	-610.736450	491.721283	-423.268066	-613.581299	259.470856	-452.788300	-627.919189	73.804199	-377.848694	-668.056091	56.006466	-323.744080	-486.970703	47.573452	-352.307037
